# xmcd CD database file
#
# Track frame offsets:
#	150
#	14818
#	30832
#	47085
#	71598
#	88269
#	106753
#	120830
#	131855
#
# Disc length: 1995 seconds
#
# Revision: 0
# Processed by: cddbd v1.5.2PL0 Copyright (c) Steve Scherf et al.
# Submitted via: CDex 1.51
#
DISCID=7107c909
DTITLE=Sally Raggs Band - Raggs Time
DYEAR=2009
DGENRE=Blues
TTITLE0=Raggs Time
TTITLE1=Just Stay Out
TTITLE2=St. Louis Ray
TTITLE3=Little Angel
TTITLE4=Jelly Bean
TTITLE5=Live Oak Don't Care
TTITLE6=Say Please
TTITLE7=Hasts Lliego
TTITLE8=Where In Heaven
EXTD=YEAR: 2009
EXTT0=
EXTT1=
EXTT2=
EXTT3=
EXTT4=
EXTT5=
EXTT6=
EXTT7=
EXTT8=
PLAYORDER=
